<svg xmlns="http://www.w3.org/2000/svg" xml:space="preserve" id="Layer_1" x="0" y="0" style="enable-background:new 0 0 907.09 907.09" version="1.1" viewBox="0 0 907.09 907.09"><style>.st1{fill:#161d26}</style><path d="M694.49 551.26 212.6 864.34V0h481.89z" style="fill:#f8b74e"/><path d="m286.63 300.89 165.55 398.59c6.38 14.48 13.22 24.81 20.52 30.98 7.29 6.18 13.91 9.48 19.84 9.9v12.78c-16.42-.85-35.57-1.38-57.46-1.6-21.89-.21-44.24-.32-67.04-.32-23.26 0-45.15.11-65.67.32-20.52.22-36.94.75-49.25 1.6v-12.78c23.26-.85 37.97-4.57 44.12-11.18 6.16-6.6 4.67-20.76-4.45-42.48L183.33 403.74l13.68-22.36-94.4 229.32c-11.4 27.69-18.36 49.93-20.86 66.75-2.51 16.83-1.49 29.7 3.08 38.65 4.55 8.94 11.85 15.12 21.89 18.52 10.03 3.41 21.89 5.33 35.57 5.75v12.78c-16.88-.85-32.05-1.38-45.49-1.6-13.46-.21-28.17-.32-44.12-.32-8.67 0-17.9.11-27.71.32-9.81.22-18.13.75-24.97 1.6v-12.78c10.5-1.7 20.86-7.98 31.13-18.84s20.86-29.48 31.81-55.89L214.8 300.89c10.95.86 22.92 1.28 35.92 1.28 12.99 0 24.97-.42 35.91-1.28zm23.94 268.29v12.78H106.72l6.84-12.78h197.01zM694.34 291.95c29.64 0 52.67 2.77 69.09 8.3 16.42 5.54 30.32 11.29 41.73 17.25 5.47 2.98 9.92 5.22 13.34 6.71 3.42 1.5 6.72 2.24 9.92 2.24 4.55 0 7.87-2.34 9.92-7.03 2.05-4.68 3.76-11.71 5.13-21.08h15.73c-.46 8.94-1.03 19.38-1.71 31.3-.68 11.93-1.14 27.69-1.37 47.27-.24 19.59-.34 45.35-.34 77.29h-15.73c-1.83-23.42-7.64-46.2-17.44-68.35-9.81-22.14-23.26-40.45-40.36-54.93-17.1-14.47-37.52-21.72-61.23-21.72-20.07 0-36.72 5.11-49.94 15.33-13.23 10.22-19.84 24.91-19.84 44.08 0 15.76 4.1 29.28 12.31 40.56 8.21 11.29 21.09 23.11 38.65 35.45 17.55 12.36 40.7 27.9 69.43 46.63 20.52 13.2 39.1 26.41 55.75 39.6 16.64 13.21 29.98 28.11 40.02 44.71 10.03 16.61 15.05 36.63 15.05 60.04 0 28.54-8.55 52.17-25.65 70.9-17.1 18.74-39.79 32.69-68.07 41.84-28.28 9.15-59.07 13.73-92.35 13.73-31.02 0-55.75-2.55-74.22-7.67s-34.1-10.43-46.86-15.97c-10.04-5.96-17.79-8.94-23.26-8.94-4.56 0-7.87 2.35-9.92 7.03-2.05 4.69-3.76 11.72-5.13 21.08h-15.73c.91-11.07 1.47-23.95 1.71-38.65.22-14.69.45-33.75.68-57.17.22-23.42.34-53.23.34-89.43h15.73c1.82 29.81 6.95 57.71 15.39 83.68 8.43 25.98 21.43 46.95 38.99 62.92 17.55 15.97 40.93 23.95 70.12 23.95 16.87 0 31.35-2.45 43.44-7.35 12.08-4.89 21.55-12.03 28.39-21.4 6.84-9.36 10.26-20.65 10.26-33.86 0-17.89-4.34-33.54-13-46.95-8.67-13.42-20.42-25.97-35.23-37.69-14.83-11.71-32.05-23.53-51.65-35.45-21.44-13.62-41.5-27.25-60.2-40.88-18.71-13.62-33.64-28.95-44.81-45.99-11.18-17.03-16.76-37.26-16.76-60.68 0-28.11 7.97-50.99 23.94-68.67 15.96-17.67 36.94-30.76 62.94-39.28 26.02-8.49 53.61-12.75 82.8-12.75z" class="st1"/><path d="M907.09 398.46 127.41 907.09h37.16l742.52-484.38z" class="st1"/></svg>